<svg width="32" height="32" viewBox="0 0 32 32" fill="none" xmlns="http://www.w3.org/2000/svg">
<path fill-rule="evenodd" clip-rule="evenodd" d="M4.7998 15.9997C4.7998 15.337 5.33706 14.7997 5.9998 14.7997L23.0205 14.7997L16.3681 8.46473C15.8903 8.00538 15.8755 7.24573 16.3348 6.768C16.7942 6.29027 17.5538 6.27538 18.0315 6.73473L26.8315 15.1347C27.0668 15.361 27.1998 15.6733 27.1998 15.9997C27.1998 16.3261 27.0668 16.6385 26.8315 16.8647L18.0315 25.2647C17.5538 25.7241 16.7942 25.7092 16.3348 25.2315C15.8755 24.7537 15.8903 23.9941 16.3681 23.5347L23.0205 17.1997L5.9998 17.1997C5.33706 17.1997 4.7998 16.6625 4.7998 15.9997Z" fill="white" stroke="white" stroke-linecap="round" stroke-linejoin="round"/>
</svg>
