<svg width="24" height="24" viewBox="0 0 24 24" fill="none" xmlns="http://www.w3.org/2000/svg">
<path fill-rule="evenodd" clip-rule="evenodd" d="M12.7073 15.7069C12.5198 15.8943 12.2655 15.9996 12.0003 15.9996C11.7352 15.9996 11.4809 15.8943 11.2933 15.7069L5.63634 10.0499C5.54083 9.95761 5.46465 9.84726 5.41224 9.72526C5.35983 9.60326 5.33225 9.47204 5.33109 9.33926C5.32994 9.20648 5.35524 9.0748 5.40552 8.9519C5.4558 8.829 5.53006 8.71735 5.62395 8.62346C5.71784 8.52957 5.82949 8.45531 5.95239 8.40503C6.07529 8.35475 6.20696 8.32945 6.33974 8.3306C6.47252 8.33176 6.60374 8.35934 6.72575 8.41175C6.84775 8.46416 6.9581 8.54034 7.05034 8.63585L12.0003 13.5859L16.9503 8.63585C17.1389 8.4537 17.3915 8.3529 17.6537 8.35518C17.9159 8.35746 18.1668 8.46263 18.3522 8.64804C18.5376 8.83344 18.6427 9.08426 18.645 9.34645C18.6473 9.60865 18.5465 9.86125 18.3643 10.0499L12.7073 15.7069Z" fill="#B3B3B3"/>
</svg>
