<svg width="25" height="24" viewBox="0 0 25 24" fill="none" xmlns="http://www.w3.org/2000/svg">
<g clip-path="url(#clip0_2121_3933)">
<g clip-path="url(#clip1_2121_3933)">
<path d="M21.5667 0H3.43333C1.80667 0 0.5 1.22667 0.5 2.74667V16.5333C0.5 18.0533 1.80667 19.28 3.43333 19.28H5.35333V23.36C5.35333 23.6 5.51333 23.84 5.75333 23.9467C5.86 24 5.94 24 6.04667 24C6.20667 24 6.36667 23.9467 6.5 23.8667L12.5533 19.28H21.5667C23.1933 19.28 24.5 18.0533 24.5 16.5333V2.74667C24.5 1.22667 23.1933 0 21.5667 0ZM23.14 16.5067C23.14 17.3067 22.4467 17.9467 21.5933 17.9467H12.2867C12.1267 17.9467 11.9667 18 11.8333 18.08L6.74 21.9467V18.5867C6.74 18.24 6.42 17.9467 6.04667 17.9467H3.43333C2.58 17.9467 1.88667 17.3067 1.88667 16.5067V2.8C1.88667 2 2.58 1.36 3.43333 1.36H21.62C22.4733 1.36 23.1667 2 23.1667 2.8V16.5067H23.14Z" fill="#0E1116"/>
<path d="M7.43301 10.0533H11.2197V8.71999H7.43301V7.06666H11.5397V5.67999H5.83301V13.4667H11.7263V12.0533H7.43301V10.0533Z" fill="#0E1116"/>
<path d="M17.7805 11.12L14.6871 5.67999H12.9805V13.4667H14.5005V7.94666L17.6738 13.4667H19.3005V5.67999H17.7805V11.12Z" fill="#0E1116"/>
</g>
</g>
<defs>
<clipPath id="clip0_2121_3933">
<rect width="24" height="24" fill="white" transform="translate(0.5)"/>
</clipPath>
<clipPath id="clip1_2121_3933">
<rect width="24" height="24" fill="white" transform="translate(0.5)"/>
</clipPath>
</defs>
</svg>
