<svg width="56" height="56" viewBox="0 0 56 56" fill="none" xmlns="http://www.w3.org/2000/svg">
<rect x="0.5" y="0.5" width="55" height="55" rx="7.5" fill="#F7F7F8"/>
<rect x="0.5" y="0.5" width="55" height="55" rx="7.5" stroke="#F1F1F3"/>
<g clip-path="url(#clip0_2130_11017)">
<path d="M40 28C40 21.3726 34.6274 16 28 16C21.3726 16 16 21.3726 16 28C16 33.9895 20.3882 38.954 26.125 39.8542V31.4687H23.0781V28H26.125V25.3562C26.125 22.3488 27.9166 20.6875 30.6576 20.6875C31.9701 20.6875 33.3438 20.9219 33.3438 20.9219V23.875H31.8306C30.34 23.875 29.875 24.8001 29.875 25.75V28H33.2031L32.6711 31.4687H29.875V39.8542C35.6118 38.954 40 33.9895 40 28Z" fill="#333333"/>
</g>
<defs>
<clipPath id="clip0_2130_11017">
<rect width="24" height="24" fill="white" transform="translate(16 16)"/>
</clipPath>
</defs>
</svg>
