<svg width="31" height="30" viewBox="0 0 31 30" fill="none" xmlns="http://www.w3.org/2000/svg">
<g clip-path="url(#clip0_38_3002)">
<path d="M30.2083 15.3456C30.2083 14.3259 30.1256 13.3007 29.9493 12.2976H15.8008V18.0738H23.9029C23.5667 19.9368 22.4864 21.5848 20.9046 22.632V26.3799H25.7383C28.5768 23.7674 30.2083 19.9092 30.2083 15.3456Z" fill="#4285F4"/>
<path d="M15.7989 30.001C19.8445 30.001 23.2562 28.6727 25.742 26.3799L20.9082 22.6319C19.5634 23.5469 17.8272 24.065 15.8044 24.065C11.8911 24.065 8.57311 21.4249 7.38259 17.8754H2.39453V21.739C4.94092 26.8043 10.1274 30.001 15.7989 30.001Z" fill="#34A853"/>
<path d="M7.37895 17.8754C6.75063 16.0124 6.75063 13.9952 7.37895 12.1322V8.26855H2.39641C0.268905 12.507 0.268905 17.5006 2.39641 21.7391L7.37895 17.8754Z" fill="#FBBC04"/>
<path d="M15.7989 5.93708C17.9374 5.90401 20.0043 6.70871 21.5531 8.18583L25.8356 3.90327C23.1239 1.35688 19.5248 -0.0430825 15.7989 0.00101083C10.1274 0.00101083 4.94092 3.19778 2.39453 8.26851L7.37708 12.1322C8.56209 8.57716 11.8856 5.93708 15.7989 5.93708Z" fill="#EA4335"/>
</g>
<defs>
<clipPath id="clip0_38_3002">
<rect width="30" height="30" fill="white" transform="translate(0.5)"/>
</clipPath>
</defs>
</svg>
