<svg width="25" height="24" viewBox="0 0 25 24" fill="none" xmlns="http://www.w3.org/2000/svg">
<path d="M12.5 22C11.1868 22 9.88642 21.7413 8.67317 21.2388C7.45991 20.7362 6.35752 19.9997 5.42893 19.0711C3.55357 17.1957 2.5 14.6522 2.5 12C2.5 9.34784 3.55357 6.8043 5.42893 4.92893C7.3043 3.05357 9.84784 2 12.5 2C18 2 22.5 6 22.5 11C22.5 12.5913 21.8679 14.1174 20.7426 15.2426C19.6174 16.3679 18.0913 17 16.5 17H14.7C14.4 17 14.2 17.2 14.2 17.5C14.2 17.6 14.3 17.7 14.3 17.8C14.7 18.3 14.9 18.9 14.9 19.5C15 20.9 13.9 22 12.5 22ZM12.5 4C10.3783 4 8.34344 4.84285 6.84315 6.34315C5.34285 7.84344 4.5 9.87827 4.5 12C4.5 14.1217 5.34285 16.1566 6.84315 17.6569C8.34344 19.1571 10.3783 20 12.5 20C12.8 20 13 19.8 13 19.5C13 19.3 12.9 19.2 12.9 19.1C12.5 18.6 12.3 18.1 12.3 17.5C12.3 16.1 13.4 15 14.8 15H16.5C17.5609 15 18.5783 14.5786 19.3284 13.8284C20.0786 13.0783 20.5 12.0609 20.5 11C20.5 7.1 16.9 4 12.5 4ZM7 10C7.8 10 8.5 10.7 8.5 11.5C8.5 12.3 7.8 13 7 13C6.2 13 5.5 12.3 5.5 11.5C5.5 10.7 6.2 10 7 10ZM10 6C10.8 6 11.5 6.7 11.5 7.5C11.5 8.3 10.8 9 10 9C9.2 9 8.5 8.3 8.5 7.5C8.5 6.7 9.2 6 10 6ZM15 6C15.8 6 16.5 6.7 16.5 7.5C16.5 8.3 15.8 9 15 9C14.2 9 13.5 8.3 13.5 7.5C13.5 6.7 14.2 6 15 6ZM18 10C18.8 10 19.5 10.7 19.5 11.5C19.5 12.3 18.8 13 18 13C17.2 13 16.5 12.3 16.5 11.5C16.5 10.7 17.2 10 18 10Z" fill="#0E1116"/>
</svg>
