<svg width="25" height="24" viewBox="0 0 25 24" fill="none" xmlns="http://www.w3.org/2000/svg">
<g clip-path="url(#clip0_2121_3996)">
<path d="M23 6.125H19.84C17.3452 6.13158 14.866 5.73133 12.5 4.94C10.1427 4.14792 7.67184 3.74596 5.185 3.75H2C1.71 3.75 1.5 3.925 1.5 4.145V17.145C1.5185 17.2616 1.5802 17.367 1.67284 17.4402C1.76549 17.5134 1.88228 17.549 2 17.54H5.185C7.67163 17.5386 10.142 17.9405 12.5 18.73C14.8603 19.524 17.3347 19.926 19.825 19.92H23C23.118 19.9302 23.2354 19.895 23.3283 19.8216C23.4212 19.7482 23.4826 19.6421 23.5 19.525V6.5C23.4771 6.38707 23.4135 6.28648 23.3214 6.21735C23.2292 6.14821 23.1148 6.11535 23 6.125Z" stroke="#0E1116" stroke-width="1.5" stroke-linecap="round" stroke-linejoin="round"/>
<path d="M8.69703 13.201C9.11076 14.3572 9.90981 15.3221 10.9184 15.8834C11.9269 16.4447 13.0624 16.5565 14.075 16.1941C15.0876 15.8318 15.8944 15.025 16.3178 13.9512C16.7413 12.8774 16.7468 11.6247 16.333 10.4685C16.1282 9.89601 15.8266 9.36447 15.4454 8.90423C15.0643 8.44398 14.6111 8.06404 14.1117 7.7861C13.1031 7.22478 11.9676 7.113 10.955 7.47535C9.94244 7.8377 9.13567 8.64451 8.71221 9.71827C8.28875 10.792 8.28329 12.0448 8.69703 13.201Z" fill="#0E1116"/>
</g>
<defs>
<clipPath id="clip0_2121_3996">
<rect width="24" height="24" fill="white" transform="translate(0.5)"/>
</clipPath>
</defs>
</svg>
