<svg width="25" height="24" viewBox="0 0 25 24" fill="none" xmlns="http://www.w3.org/2000/svg">
<g clip-path="url(#clip0_2121_4007)">
<path d="M0.5 2.625C0.5 1.176 1.676 0 3.125 0H21.875C23.324 0 24.5 1.176 24.5 2.625V5.625C24.5 5.92337 24.3815 6.20952 24.1705 6.4205C23.9595 6.63147 23.6734 6.75 23.375 6.75C23.0766 6.75 22.7905 6.63147 22.5795 6.4205C22.3685 6.20952 22.25 5.92337 22.25 5.625V2.625C22.25 2.52554 22.2105 2.43016 22.1402 2.35984C22.0698 2.28951 21.9745 2.25 21.875 2.25H3.125C3.02554 2.25 2.93016 2.28951 2.85984 2.35984C2.78951 2.43016 2.75 2.52554 2.75 2.625V21.375C2.75 21.582 2.918 21.75 3.125 21.75H23.375C23.6734 21.75 23.9595 21.8685 24.1705 22.0795C24.3815 22.2905 24.5 22.5766 24.5 22.875C24.5 23.1734 24.3815 23.4595 24.1705 23.6705C23.9595 23.8815 23.6734 24 23.375 24H3.125C2.42881 24 1.76113 23.7234 1.26884 23.2312C0.776562 22.7389 0.5 22.0712 0.5 21.375L0.5 2.625ZM12.875 8.625C13.1734 8.625 13.4595 8.74353 13.6705 8.9545C13.8815 9.16548 14 9.45163 14 9.75V15.75C14 17.2575 13.586 18.387 12.7325 19.098C11.918 19.7775 10.931 19.875 10.25 19.875C9.95163 19.875 9.66548 19.7565 9.4545 19.5455C9.24353 19.3345 9.125 19.0484 9.125 18.75C9.125 18.4516 9.24353 18.1655 9.4545 17.9545C9.66548 17.7435 9.95163 17.625 10.25 17.625C10.769 17.625 11.0945 17.535 11.2925 17.37C11.4515 17.238 11.75 16.8675 11.75 15.75V9.75C11.75 9.45163 11.8685 9.16548 12.0795 8.9545C12.2905 8.74353 12.5766 8.625 12.875 8.625ZM17.414 9.87C18.041 9.123 19.0265 8.625 20.375 8.625C21.6275 8.625 22.5725 9.054 23.21 9.7275C23.4076 9.94559 23.5118 10.2324 23.5004 10.5264C23.4889 10.8205 23.3628 11.0983 23.1489 11.3004C22.935 11.5025 22.6505 11.6128 22.3562 11.6076C22.062 11.6024 21.7816 11.4821 21.575 11.2725C21.41 11.0985 21.08 10.875 20.375 10.875C19.625 10.875 19.295 11.127 19.136 11.3175C18.9774 11.5108 18.8858 11.7502 18.875 12C18.875 12.156 18.9395 12.45 19.136 12.6825C19.2965 12.873 19.6235 13.125 20.375 13.125C20.489 13.125 20.598 13.141 20.702 13.173C21.6965 13.314 22.448 13.758 22.961 14.37C23.552 15.075 23.75 15.906 23.75 16.5C23.75 17.094 23.552 17.925 22.961 18.63C22.334 19.377 21.3485 19.875 20 19.875C18.7475 19.875 17.8025 19.446 17.165 18.7725C16.9674 18.5544 16.8632 18.2676 16.8746 17.9736C16.8861 17.6795 17.0122 17.4017 17.2261 17.1996C17.44 16.9975 17.7245 16.8872 18.0188 16.8924C18.313 16.8976 18.5934 17.0179 18.8 17.2275C18.965 17.4015 19.295 17.625 20 17.625C20.75 17.625 21.08 17.373 21.239 17.1825C21.3976 16.9892 21.4892 16.7498 21.5 16.5C21.5 16.344 21.4355 16.05 21.239 15.8175C21.0785 15.627 20.7515 15.375 20 15.375C19.8893 15.3742 19.7793 15.358 19.673 15.327C18.6785 15.1845 17.927 14.742 17.414 14.13C16.9139 13.5319 16.6352 12.7796 16.625 12C16.625 11.406 16.823 10.575 17.414 9.87Z" fill="#0E1116"/>
</g>
<defs>
<clipPath id="clip0_2121_4007">
<rect width="24" height="24" fill="white" transform="translate(0.5)"/>
</clipPath>
</defs>
</svg>
