<svg width="32" height="32" viewBox="0 0 32 32" fill="none" xmlns="http://www.w3.org/2000/svg">
<path d="M3 20.1667C3 18.0967 3.39307 16.1186 4.10865 14.3028C4.5154 13.2707 5.55645 12.6667 6.66581 12.6667H8.06949C8.69871 12.6667 9.06307 13.4079 8.73641 13.9457C7.63451 15.7597 7 17.8891 7 20.1667C7 21.758 7.30976 23.277 7.87228 24.6667C7.98269 24.9394 8.10285 25.2072 8.23231 25.4696C8.49516 26.0023 8.12826 26.6667 7.53423 26.6667H6.32385C5.1389 26.6667 4.03988 25.976 3.69408 24.8426C3.24278 23.3635 3 21.7934 3 20.1667Z" fill="#B58FFF"/>
<path d="M8.84343 13.6667C9.91857 13.6667 10.8886 13.0722 11.5521 12.2262C12.583 10.9118 13.8823 9.81786 15.3674 9.02695C16.3302 8.51417 17.1657 7.75238 17.5709 6.73951C17.8543 6.03079 18 5.27449 18 4.51117V3.66666C18 3.11438 18.4477 2.66666 19 2.66666C20.6569 2.66666 22 4.00981 22 5.66666C22 7.20217 21.6539 8.65684 21.0355 9.95694C20.6814 10.7014 21.1782 11.6667 22.0025 11.6667M22.0025 11.6667H26.1703C27.5392 11.6667 28.7644 12.592 28.9093 13.9531C28.9693 14.5161 29 15.0878 29 15.6667C29 19.4635 27.6775 22.9514 25.468 25.695C24.9512 26.3367 24.1523 26.6667 23.3283 26.6667H17.9737C17.3288 26.6667 16.6881 26.5627 16.0763 26.3588L11.9237 24.9746C11.3119 24.7706 10.6712 24.6667 10.0263 24.6667H7.87228M22.0025 11.6667H19M7.87228 24.6667C7.98269 24.9394 8.10285 25.2072 8.23231 25.4696C8.49516 26.0023 8.12826 26.6667 7.53423 26.6667H6.32385C5.1389 26.6667 4.03988 25.976 3.69408 24.8426C3.24278 23.3635 3 21.7934 3 20.1667C3 18.0967 3.39307 16.1186 4.10865 14.3028C4.5154 13.2707 5.55645 12.6667 6.66581 12.6667H8.06949C8.69871 12.6667 9.06307 13.4079 8.73641 13.9457C7.63451 15.7597 7 17.8891 7 20.1667C7 21.758 7.30976 23.277 7.87228 24.6667Z" stroke="#B58FFF" stroke-width="1.5" stroke-linecap="round" stroke-linejoin="round"/>
</svg>
