<svg width="56" height="56" viewBox="0 0 56 56" fill="none" xmlns="http://www.w3.org/2000/svg">
<rect x="0.5" y="0.5" width="55" height="55" rx="7.5" fill="#F7F7F8"/>
<rect x="0.5" y="0.5" width="55" height="55" rx="7.5" stroke="#F1F1F3"/>
<g clip-path="url(#clip0_2130_11023)">
<path d="M38.2234 15.5H17.7719C16.7922 15.5 16 16.2734 16 17.2297V37.7656C16 38.7219 16.7922 39.5 17.7719 39.5H38.2234C39.2031 39.5 40 38.7219 40 37.7703V17.2297C40 16.2734 39.2031 15.5 38.2234 15.5ZM23.1203 35.9516H19.5578V24.4953H23.1203V35.9516ZM21.3391 22.9344C20.1953 22.9344 19.2719 22.0109 19.2719 20.8719C19.2719 19.7328 20.1953 18.8094 21.3391 18.8094C22.4781 18.8094 23.4016 19.7328 23.4016 20.8719C23.4016 22.0062 22.4781 22.9344 21.3391 22.9344ZM36.4516 35.9516H32.8937V30.3828C32.8937 29.0562 32.8703 27.3453 31.0422 27.3453C29.1906 27.3453 28.9094 28.7937 28.9094 30.2891V35.9516H25.3563V24.4953H28.7687V26.0609H28.8156C29.2891 25.1609 30.4516 24.2094 32.1813 24.2094C35.7859 24.2094 36.4516 26.5813 36.4516 29.6656V35.9516Z" fill="#333333"/>
</g>
<defs>
<clipPath id="clip0_2130_11023">
<rect width="24" height="24" fill="white" transform="translate(16 16)"/>
</clipPath>
</defs>
</svg>
