<svg width="24" height="24" viewBox="0 0 24 24" fill="none" xmlns="http://www.w3.org/2000/svg">
<g clip-path="url(#clip0_2100_2)">
<path fill-rule="evenodd" clip-rule="evenodd" d="M12.7073 15.707C12.5198 15.8945 12.2655 15.9998 12.0003 15.9998C11.7352 15.9998 11.4809 15.8945 11.2933 15.707L5.63634 10.05C5.54083 9.95775 5.46465 9.84741 5.41224 9.7254C5.35983 9.6034 5.33225 9.47218 5.33109 9.3394C5.32994 9.20662 5.35524 9.07494 5.40552 8.95205C5.4558 8.82915 5.53006 8.7175 5.62395 8.6236C5.71784 8.52971 5.82949 8.45546 5.95239 8.40518C6.07529 8.3549 6.20696 8.3296 6.33974 8.33075C6.47252 8.3319 6.60374 8.35949 6.72575 8.4119C6.84775 8.46431 6.9581 8.54049 7.05034 8.636L12.0003 13.586L16.9503 8.636C17.1389 8.45384 17.3915 8.35305 17.6537 8.35533C17.9159 8.3576 18.1668 8.46277 18.3522 8.64818C18.5376 8.83359 18.6427 9.0844 18.645 9.3466C18.6473 9.6088 18.5465 9.8614 18.3643 10.05L12.7073 15.707Z" fill="#0E1116"/>
</g>
<defs>
<clipPath id="clip0_2100_2">
<rect width="24" height="24" fill="white"/>
</clipPath>
</defs>
</svg>
