<svg width="25" height="24" viewBox="0 0 25 24" fill="none" xmlns="http://www.w3.org/2000/svg">
<path fill-rule="evenodd" clip-rule="evenodd" d="M14.29 20.355C14.29 20.8272 14.6728 21.21 15.145 21.21C15.6172 21.21 16 20.8272 16 20.355C16 19.8828 15.6172 19.5 15.145 19.5C14.6728 19.5 14.29 19.8828 14.29 20.355ZM10 3.64501C10 4.11721 10.3828 4.50001 10.855 4.50001C11.3272 4.50001 11.71 4.11721 11.71 3.64501C11.71 3.17281 11.3272 2.79001 10.855 2.79001C10.3828 2.79001 10 3.17281 10 3.64501Z" fill="#0E1116"/>
<path fill-rule="evenodd" clip-rule="evenodd" d="M21.7857 5.57142H18.9286V2.71428C18.9286 1.21713 17.7114 0 16.2143 0H8.7857C7.28858 0 6.07142 1.21713 6.07142 2.71428V5.57142H3.21428C1.71713 5.57142 0.5 6.78858 0.5 8.2857V15.7143C0.5 17.2114 1.71713 18.4286 3.21428 18.4286H6.07142V21.2857C6.07142 22.7829 7.28858 24 8.7857 24H16.2143C17.7114 24 18.9286 22.7829 18.9286 21.2857V18.4286H21.7857C23.2829 18.4286 24.5 17.2114 24.5 15.7143V8.2857C24.5 6.78858 23.2829 5.57142 21.7857 5.57142ZM3.21428 16.7143C2.66288 16.7143 2.21429 16.2657 2.21429 15.7143V8.2857C2.21429 7.7343 2.66285 7.28571 3.21428 7.28571H11.5714C12.0457 7.28571 12.4286 6.90285 12.4286 6.42858C12.4286 5.95431 12.0457 5.57142 11.5714 5.57142H7.78574V2.71428C7.78574 2.16288 8.2343 1.71429 8.7857 1.71429H16.2143C16.7657 1.71429 17.2143 2.16285 17.2143 2.71428V10.4086C17.2143 10.8143 16.8857 11.1429 16.48 11.1429H8.51999C7.16858 11.1429 6.07142 12.2428 6.07142 13.5914V16.7143H3.21428ZM22.7857 15.7143C22.7857 16.2657 22.3371 16.7143 21.7857 16.7143H13.4286C12.9543 16.7143 12.5714 17.0971 12.5714 17.5714C12.5714 18.0457 12.9543 18.4286 13.4286 18.4286H17.2143V21.2857C17.2143 21.8371 16.7657 22.2857 16.2143 22.2857H8.7857C8.2343 22.2857 7.78571 21.8371 7.78571 21.2857V13.5914C7.78571 13.1857 8.1143 12.8571 8.51999 12.8571H16.48C17.8314 12.8571 18.9286 11.7571 18.9286 10.4086V7.28571H21.7857C22.3371 7.28571 22.7857 7.7343 22.7857 8.2857V15.7143Z" fill="#0E1116"/>
</svg>
