<svg width="48" height="48" viewBox="0 0 48 48" fill="none" xmlns="http://www.w3.org/2000/svg">
<g clip-path="url(#clip0_2140_1390)">
<path fill-rule="evenodd" clip-rule="evenodd" d="M42.5714 11.1428H36.8572V5.42856C36.8572 2.43426 34.4228 0 31.4286 0H16.5714C13.5772 0 11.1428 2.43426 11.1428 5.42856V11.1428H5.42856C2.43426 11.1428 0 13.5772 0 16.5714V31.4286C0 34.4228 2.43426 36.8572 5.42856 36.8572H11.1428V42.5714C11.1428 45.5657 13.5772 48 16.5714 48H31.4286C34.4228 48 36.8572 45.5657 36.8572 42.5714V36.8572H42.5714C45.5657 36.8572 48 34.4228 48 31.4286V16.5714C48 13.5772 45.5657 11.1428 42.5714 11.1428ZM5.42856 33.4286C4.32576 33.4286 3.42858 32.5314 3.42858 31.4286V16.5714C3.42858 15.4686 4.3257 14.5714 5.42856 14.5714H22.1429C23.0915 14.5714 23.8571 13.8057 23.8571 12.8572C23.8571 11.9086 23.0914 11.1428 22.1429 11.1428H14.5715V5.42856C14.5715 4.32576 15.4686 3.42858 16.5714 3.42858H31.4286C32.5314 3.42858 33.4286 4.3257 33.4286 5.42856V20.8171C33.4286 21.6286 32.7714 22.2857 31.96 22.2857H16.04C13.3372 22.2857 11.1428 24.4857 11.1428 27.1829V33.4286H5.42856ZM44.5714 31.4286C44.5714 32.5314 43.6743 33.4286 42.5714 33.4286H25.8571C24.9085 33.4286 24.1429 34.1943 24.1429 35.1428C24.1429 36.0914 24.9086 36.8572 25.8571 36.8572H33.4285V42.5714C33.4285 43.6742 32.5314 44.5714 31.4286 44.5714H16.5714C15.4686 44.5714 14.5714 43.6743 14.5714 42.5714V27.1829C14.5714 26.3714 15.2286 25.7143 16.04 25.7143H31.96C34.6628 25.7143 36.8572 23.5143 36.8572 20.8171V14.5714H42.5714C43.6742 14.5714 44.5714 15.4686 44.5714 16.5714V31.4286Z" fill="#B58FFF"/>
<path fill-rule="evenodd" clip-rule="evenodd" d="M26.58 41.7594C26.58 42.7207 27.3456 43.5 28.29 43.5C29.2344 43.5 30 42.7207 30 41.7594C30 40.798 29.2344 40.0187 28.29 40.0187C27.3456 40.0187 26.58 40.798 26.58 41.7594ZM18 7.74064C18 8.70195 18.7656 9.48127 19.71 9.48127C20.6544 9.48127 21.42 8.70195 21.42 7.74064C21.42 6.77932 20.6544 6 19.71 6C18.7656 6 18 6.77932 18 7.74064Z" fill="#B58FFF"/>
</g>
<defs>
<clipPath id="clip0_2140_1390">
<rect width="48" height="48" fill="white"/>
</clipPath>
</defs>
</svg>
