<svg width="32" height="32" viewBox="0 0 32 32" fill="none" xmlns="http://www.w3.org/2000/svg">
<path d="M9.62295 14.5428C9.1106 13.6226 8.128 13 7 13C5.34315 13 4 14.3431 4 16C4 17.6569 5.34315 19 7 19C8.128 19 9.1106 18.3774 9.62295 17.4572M9.62295 14.5428C9.86316 14.9743 10 15.4711 10 16C10 16.5289 9.86316 17.0257 9.62295 17.4572M9.62295 14.5428L22.3771 7.45719M9.62295 17.4572L22.3771 24.5428M22.3771 24.5428C22.1368 24.9743 22 25.4711 22 26C22 27.6569 23.3431 29 25 29C26.6569 29 28 27.6569 28 26C28 24.3431 26.6569 23 25 23C23.872 23 22.8894 23.6226 22.3771 24.5428ZM22.3771 7.45719C22.8894 8.37745 23.872 9 25 9C26.6569 9 28 7.65685 28 6C28 4.34315 26.6569 3 25 3C23.3431 3 22 4.34315 22 6C22 6.52885 22.1368 7.02574 22.3771 7.45719Z" stroke="#0E1116" stroke-width="1.5" stroke-linecap="round" stroke-linejoin="round"/>
</svg>
