<svg width="56" height="56" viewBox="0 0 56 56" fill="none" xmlns="http://www.w3.org/2000/svg">
<rect x="0.5" y="0.5" width="55" height="55" rx="7.5" fill="#F7F7F8"/>
<rect x="0.5" y="0.5" width="55" height="55" rx="7.5" stroke="#F1F1F3"/>
<path d="M23.5502 37.2502C32.6045 37.2502 37.5583 29.7469 37.5583 23.2421C37.5583 23.0312 37.5536 22.8155 37.5442 22.6046C38.5079 21.9077 39.3395 21.0445 40 20.0555C39.1025 20.4548 38.1496 20.7156 37.1739 20.829C38.2013 20.2132 38.9705 19.2457 39.3391 18.106C38.3726 18.6788 37.3156 19.0829 36.2134 19.3009C35.4708 18.5118 34.489 17.9894 33.4197 17.8143C32.3504 17.6392 31.2532 17.8213 30.2977 18.3323C29.3423 18.8434 28.5818 19.6549 28.1338 20.6416C27.6859 21.6282 27.5754 22.7349 27.8195 23.7905C25.8625 23.6923 23.9479 23.1839 22.2 22.2983C20.452 21.4127 18.9097 20.1697 17.673 18.6498C17.0444 19.7335 16.8521 21.0159 17.135 22.2363C17.418 23.4568 18.1551 24.5237 19.1964 25.2202C18.4146 25.1954 17.65 24.9849 16.9656 24.6062V24.6671C16.9649 25.8044 17.3581 26.9068 18.0783 27.787C18.7985 28.6672 19.8013 29.2708 20.9162 29.4952C20.1921 29.6934 19.432 29.7222 18.6948 29.5796C19.0095 30.5577 19.6216 31.4131 20.4458 32.0266C21.27 32.64 22.2651 32.9808 23.2923 33.0015C21.5484 34.3714 19.3942 35.1144 17.1766 35.1109C16.7833 35.1103 16.3904 35.0861 16 35.0387C18.2529 36.484 20.8735 37.2516 23.5502 37.2502Z" fill="#333333"/>
</svg>
